<svg width="24" height="22" viewBox="0 0 24 22" fill="none" xmlns="http://www.w3.org/2000/svg">
<path d="M5.54068 16.1176C5.69599 15.6875 5.51553 15.2216 5.14778 14.9549C4.97746 14.8314 4.80935 14.7058 4.64631 14.5729C3.71896 13.824 2.94862 12.9283 2.47667 11.7896C1.71025 9.94408 1.8829 8.1625 2.88762 6.4685C3.92981 4.71146 5.47667 3.6122 7.28851 2.91251C10.2918 1.75182 13.33 1.69439 16.3669 2.76322C18.1435 3.38827 19.6919 4.39147 20.8396 5.99184C22.4849 8.28872 22.37 11.2252 20.5622 13.4022C19.0974 15.1658 17.2028 16.1239 15.0786 16.6514C13.9253 16.9382 10.9415 16.4479 10.1738 17.1058C8.55661 18.5348 6.70115 19.4386 4.64011 19.8947C4.45261 19.9358 4.26042 19.962 4.07056 19.9907C3.82993 20.0277 3.63306 19.9579 3.50961 19.7217C3.38696 19.4854 3.43148 19.2706 3.58461 19.0753C3.76273 18.8489 3.944 18.6241 4.13852 18.4158C4.75468 17.7586 5.23109 16.975 5.54068 16.1176Z" stroke="white" stroke-width="3" stroke-linecap="round"/>
</svg>
